<svg id="Capa_2" data-name="Capa 2" xmlns="http://www.w3.org/2000/svg" xmlns:xlink="http://www.w3.org/1999/xlink" viewBox="0 0 28 28"><defs><style>.cls-1{fill:none;}.cls-2{clip-path:url(#clip-path);}</style><clipPath id="clip-path"><rect class="cls-1" width="27.97" height="27.97"/></clipPath></defs><title>Mesa de trabajo 4</title><g class="cls-2"><g id="Arrow_left" data-name="Arrow left"><path d="M14,26.07A12.07,12.07,0,1,1,26.07,14,12.08,12.08,0,0,1,14,26.07ZM14,2.93A11.07,11.07,0,1,0,25.07,14,11.09,11.09,0,0,0,14,2.93Z"/><path d="M16.83,20.43a.5.5,0,0,1-.35-.15l-6.06-6.05a.5.5,0,0,1-.14-.37.48.48,0,0,1,.16-.36l6.45-5.8a.5.5,0,0,1,.71,0,.5.5,0,0,1,0,.7L11.5,13.89l5.69,5.69a.5.5,0,0,1,0,.7A.51.51,0,0,1,16.83,20.43Z"/></g></g></svg>