<svg xmlns="http://www.w3.org/2000/svg" xmlns:xlink="http://www.w3.org/1999/xlink" width="160" height="146.424" viewBox="0 0 160 146.424"><defs><style>.a{fill:none;}.b{clip-path:url(#a);}.c{fill:url(#b);}.d{fill:url(#c);}.e{fill:url(#d);}.f{fill:url(#e);}.g{fill:url(#f);}.h{fill:url(#g);}</style><clipPath id="a"><rect class="a" width="160" height="146.424"/></clipPath><linearGradient id="b" y1="0.5" x2="1" y2="0.5" gradientUnits="objectBoundingBox"><stop offset="0" stop-color="#57b5ff"/><stop offset="1" stop-color="#7c5eff"/></linearGradient><linearGradient id="c" x1="-0.32" y1="0.506" x2="5.361" y2="0.471" xlink:href="#b"/><linearGradient id="d" x1="-1.386" y1="0.512" x2="3.944" y2="0.478" xlink:href="#b"/><linearGradient id="e" x1="-2.5" y1="0.52" x2="2.808" y2="0.486" xlink:href="#b"/><linearGradient id="f" x1="-3.539" y1="0.527" x2="1.639" y2="0.493" xlink:href="#b"/><linearGradient id="g" x1="-4.977" y1="0.538" x2="0.562" y2="0.5" xlink:href="#b"/></defs><g class="b"><g transform="translate(36.533)"><path class="c" d="M123.077-97.155h-44.8a21.213,21.213,0,0,0-21.17,21.17v33.341a21.213,21.213,0,0,0,21.17,21.17h5.829A38.127,38.127,0,0,1,81.555-8.792,6.366,6.366,0,0,0,83.4-1.531,6.762,6.762,0,0,0,87.589.105a6.957,6.957,0,0,0,3.17-.818c9.307-5.421,17.08-14.113,22.3-20.863h10.023a21.213,21.213,0,0,0,21.17-21.17V-75.985A21.279,21.279,0,0,0,123.077-97.155Zm-.819,48.375c0,3.477-3.068,6.75-7.261,7.568-4.7.92-9.2-1.534-9.92-5.523s2.455-7.977,7.159-8.9a10.279,10.279,0,0,1,5.011.307V-71.689l-23.625,3.58v23.727c0,3.477-3.068,6.75-7.261,7.568-4.7.92-9.2-1.534-9.92-5.523-.818-3.989,2.455-7.977,7.159-8.9a10.279,10.279,0,0,1,5.011.307V-74.553a3.514,3.514,0,0,1,2.966-3.477l26.693-3.989a3.473,3.473,0,0,1,3.988,3.477Z" transform="translate(-57.112 97.155)"/></g><g transform="translate(0 113.042)"><path class="d" d="M38.665,121.274v2.774H26.519v.669h9.373V127.3H12.779v-2.582h9.053v-.669H10.1v-2.774H21.832v-1.466h4.687v1.466ZM10.292,133.612H38.41v4.942H34.457v.86h-1.5c1.148.734,2.231,1.5,3,2.1l-2.1,1.69h1.721v2.614H26.519v.669h11.8v3.028H10.451v-3.028H21.832v-.669H13.608v-2.614h8.225v-.542c-5,.159-5.993.254-6.726.478a28.266,28.266,0,0,0-.924-2.774,9.617,9.617,0,0,0,1.69-.382c.287-.1.829-.287,1.466-.574h-3.57v-.86H10.292Zm24.835-5.643v4.974H13.8v-4.974ZM14.4,136.417v.638h19.67v-.638ZM30.6,130.105H18.039v.7H30.6Zm-2.391,10.042c-.446-.256-.893-.478-1.307-.7l.032-.032H22.279c-.51.288-.988.574-1.53.829Zm4.464,3.06c-.287-.255-.638-.51-1.02-.8l-5.133.128v.669Z" transform="translate(-10.101 -119.808)"/><path class="e" d="M66.573,135.232a22.932,22.932,0,0,0-4.623-3.22l2.518-3.22a22.169,22.169,0,0,1,4.782,2.9Zm.574-8.161a21.856,21.856,0,0,0-4.559-3.475l2.615-3.124A21.257,21.257,0,0,1,69.92,123.6ZM62.715,147.7a98.044,98.044,0,0,0,4.017-10.328l3.666,2.359c-1.052,3.443-2.263,7.046-3.538,10.265Zm8.8-14.951a13.156,13.156,0,0,1-1.243,4.176,12.2,12.2,0,0,0-1.785-1.307,9.646,9.646,0,0,0,.956-3.411Zm3.762-1.307a6.829,6.829,0,0,0-.223-.956,25.905,25.905,0,0,0-5.292.956,10.307,10.307,0,0,0-.829-1.721c.542-.1.956-.51,1.53-1.148a15.7,15.7,0,0,0,1.4-1.786,9.262,9.262,0,0,0-2.3.383,10.58,10.58,0,0,0-.861-1.69,1.92,1.92,0,0,0,1.116-.893,15.449,15.449,0,0,0,1.881-4.176l2.391.861a16.075,16.075,0,0,1-1.977,3.379l1.116-.064a11.518,11.518,0,0,0,.7-1.4L76.2,124.2a23.608,23.608,0,0,1-3.156,4.431l1.275-.128c-.1-.223-.191-.446-.288-.669l1.786-.638a19.241,19.241,0,0,1,1.339,3.475ZM91.407,143.17a9.075,9.075,0,0,1-.223,1.562c-.415,2.486-.957,3.889-1.818,4.622a5.344,5.344,0,0,1-3.283.956c-1.116.032-3.06.032-5.069-.031a7.458,7.458,0,0,0-1.18-3.316c1.818.159,3.921.191,4.75.191a2.4,2.4,0,0,0,1.371-.255,2.068,2.068,0,0,0,.638-1.02H70.749a54.942,54.942,0,0,0,1.467-5.9H85.509v-.638H71.387v-2.486h18.4v5.611H75.914l-.159.7Zm-19.191-6.854a17.169,17.169,0,0,0-.511-3.57l1.881-.51a15.954,15.954,0,0,1,.606,3.443Zm2.773-.733a15.606,15.606,0,0,0-.733-3.315l1.689-.669a15.7,15.7,0,0,1,.829,3.188Zm9.118-10.074H76.615v-2.3h2.806a17.32,17.32,0,0,0-.8-2.136l2.933-.574a21.835,21.835,0,0,1,1.053,2.455l-1.116.255h2.741v2.263a2.957,2.957,0,0,0,.861-.829,15.489,15.489,0,0,0,1.881-4.176l2.391.86a18.354,18.354,0,0,1-1.945,3.38l1.084-.064a11.516,11.516,0,0,0,.7-1.4l2.263,1.02a23.8,23.8,0,0,1-3.188,4.431l1.307-.127c-.1-.224-.191-.446-.286-.67l1.753-.669A17.9,17.9,0,0,1,92.4,130.7l-1.849.766a8.277,8.277,0,0,0-.255-.925c-3.826.51-4.686.734-5.26.956a10.746,10.746,0,0,0-.86-1.721,2.852,2.852,0,0,0,1.562-1.148,15.845,15.845,0,0,0,1.4-1.785,9.282,9.282,0,0,0-2.3.382,10.656,10.656,0,0,0-.861-1.69Zm-.414,2.615H77.508v-1.977h6.185Zm0,2.55H77.508V128.7h6.185Zm-6.185.7h6.185v4.814H77.508Zm2.582,2.9h.893v-.988H80.09Zm6.694-1.626a13.156,13.156,0,0,1-1.243,4.176,12.239,12.239,0,0,0-1.786-1.307,9.628,9.628,0,0,0,.956-3.411Zm.606,4.049a18.042,18.042,0,0,0-.542-3.857l1.881-.51a16.938,16.938,0,0,1,.638,3.73Zm3.794-5.037a18.181,18.181,0,0,1,.988,3.794l-1.786.829a18.479,18.479,0,0,0-.924-3.953Z" transform="translate(-30.354 -120.025)"/><path class="f" d="M123.461,142.989a32.854,32.854,0,0,1,.574,5.611l-2.9.351a29.3,29.3,0,0,0-.255-4.559c-.414,2.136-1.02,4.367-2.263,5.77l-2.965-1.5a12,12,0,0,0,2.231-5.579l2.933.893-.1-.669Zm16.928-12.434v4.336H145.2V150h-4.4v-.956h-4.75v1.084h-4.176v-2.9l-2.614,1.051a21.966,21.966,0,0,0-2.136-5.26l2.647-.956c-4.75.223-9.628.446-13.23.573l-.128-3.857c1.594-.032,3.507-.064,5.579-.1V137.7h-4.719v-3.443h4.719v-.924h-4.91V120.737h14.091v12.592h-5.133v.924h4.878V137.7h-4.878v.861c1.786-.032,3.634-.1,5.42-.159l-.1,3.571-1.531.1a20.429,20.429,0,0,1,2.041,4.209V134.891h4.017V119.908h4.5v6.376h5.834v4.272Zm-19.925-6.79v1.148l1.435-.446a27.459,27.459,0,0,1,.765,2.9v-3.6Zm0,6.536h2.2v-1.34l-1.69.574a19.9,19.9,0,0,0-.51-3.252Zm6.184,12.433a28.709,28.709,0,0,1,1.275,5.355l-2.805.574a26.85,26.85,0,0,0-1.148-5.452Zm.988-18.969h-2.263v3.985a27.564,27.564,0,0,0,.829-3.284l1.434.478Zm0,6.536v-3.22c-.382.893-.7,1.786-1.019,2.423l-1.244-.478V130.3Zm13.167,8.767h-4.75v5.8h4.75Z" transform="translate(-51.333 -119.844)"/><path class="g" d="M194.234,132.145c0,.638-.031,1.37-.063,2.1,1.339,5.8,3.252,9.373,6.918,12.337A10.536,10.536,0,0,0,198.219,150a21.764,21.764,0,0,1-5.611-7.906,19.552,19.552,0,0,1-5.643,8.1,14.7,14.7,0,0,0-1.785-2.328,1.983,1.983,0,0,1-1.275,1.244,12.362,12.362,0,0,1-4.718.541,13.137,13.137,0,0,0-1.212-3.22c1.053.064,2.455.064,2.838.064.414-.032.541-.128.541-.478V137.6h-11.6v-3.953h11.413v-8.958h-11.03v-3.857h16.673v3.857h-1.562v5.547a33.679,33.679,0,0,0,2.837-10.425l4.368.733c-.191,1.243-.415,2.455-.7,3.666h5.132l.638-.159,3.092.8a87.331,87.331,0,0,1-2.008,9.66l-3.6-1.052c.287-1.371.606-3.284.861-5.2H190.7c-.159.415-.288.829-.415,1.244h3.953Zm-19.542,13.963v.988h-3.7v-8.608h9.023v7.619Zm4.687-20.594v7.3h-8.321v-7.3Zm-3.443,2.933h-1.658v1.467h1.658Zm-1.243,13.135v1.435h1.785v-1.435Zm10.552-7.938h2.231c-.638-.447-1.5-.956-2.231-1.371Zm.159,12.019c4.24-4.336,4.75-10.042,4.75-13.613v-2.231a23.742,23.742,0,0,1-1.721,3.825V137.6H185.4Z" transform="translate(-72.492 -119.808)"/><path class="h" d="M253.8,145.247v4.559H224.5v-4.559h12.114v-7.173h-9.022v-4.559h9.022v-6.249H226.03v-4.559h26.142v4.559H241.524v6.249h9.342v4.559h-9.342v7.173Z" transform="translate(-93.798 -120.859)"/></g></g></svg>