<svg id="Capa_2" data-name="Capa 2" xmlns="http://www.w3.org/2000/svg" xmlns:xlink="http://www.w3.org/1999/xlink" viewBox="0 0 28 28"><defs><style>.cls-1{fill:none;}.cls-2{clip-path:url(#clip-path);}</style><clipPath id="clip-path"><rect class="cls-1" width="27.97" height="27.97"/></clipPath></defs><title>Mesa de trabajo 5</title><g class="cls-2"><g id="Arrow_right" data-name="Arrow right"><path d="M14,26.24A12.24,12.24,0,1,1,26.24,14,12.25,12.25,0,0,1,14,26.24ZM14,2.76A11.24,11.24,0,1,0,25.24,14,11.25,11.25,0,0,0,14,2.76Z"/><path d="M11.13,20.51a.54.54,0,0,1-.36-.14.51.51,0,0,1,0-.71l5.77-5.77L10.4,8.36a.5.5,0,0,1,0-.71.5.5,0,0,1,.7,0L17.6,13.5a.46.46,0,0,1,.17.36.49.49,0,0,1-.15.36l-6.14,6.15A.54.54,0,0,1,11.13,20.51Z"/></g></g></svg>